<?xml version="1.0" encoding="UTF-8"?>
<svg width="456" height="456" viewBox="0 0 456 456" xmlns="http://www.w3.org/2000/svg" role="img" aria-label="工脉智感">
  <rect width="456" height="456" rx="92" fill="#0647A8"/>
  <g fill="#FFFFFF">
    <rect x="219" y="94" width="18" height="49" rx="9"/>
    <rect x="181" y="132" width="94" height="20" rx="10"/>
    <path d="M174 160c-8 0-14 6-14 14v43h136v-43c0-8-6-14-14-14H174z"/>
    <rect x="139" y="203" width="178" height="47" rx="11"/>
    <path d="M113 229c-10 4-14 12-11 22l30 84c5 15 14 23 29 23h134c15 0 24-8 29-23l30-84c3-10-1-18-11-22l-55-22H168l-55 22z"/>
  </g>
  <g fill="#0647A8">
    <rect x="183" y="178" width="24" height="23" rx="5"/>
    <rect x="216" y="178" width="24" height="23" rx="5"/>
    <rect x="249" y="178" width="24" height="23" rx="5"/>
  </g>
  <path d="M91 274h54l18-31 24 56 27-101 28 122 27-82 24 36h72" fill="none" stroke="#FF5A36" stroke-width="18" stroke-linecap="round" stroke-linejoin="round"/>
</svg>
